<svg width="21" height="19" viewBox="0 0 21 19" fill="none" xmlns="http://www.w3.org/2000/svg">
<path fill-rule="evenodd" clip-rule="evenodd" d="M3.46421 3.22303C3.51093 3.7319 3.93892 4.13043 4.45998 4.13043C5.01227 4.13043 5.45998 3.68272 5.45998 3.13043V2.79383C5.71773 3.02072 5.87994 3.35043 5.87994 3.7174C5.87994 4.40175 5.31582 4.95653 4.61994 4.95653C3.92406 4.95653 3.35994 4.40175 3.35994 3.7174C3.35994 3.54166 3.39714 3.37447 3.46421 3.22303ZM5.45998 1.23913V0.999999C5.45998 0.447714 5.01227 0 4.45998 0C3.9077 0 3.45998 0.447714 3.45998 0.999999V1.23913H3C1.34315 1.23913 0 2.58228 0 4.23913V16C0 17.6569 1.34315 19 3 19H18C19.6569 19 21 17.6569 21 16V4.23913C21 2.58228 19.6569 1.23913 18 1.23913H17.2201V0.999999C17.2201 0.447714 16.7724 0 16.2201 0C15.6678 0 15.2201 0.447714 15.2201 0.999999V1.23913H5.45998ZM16.2201 4.13043C15.6991 4.13043 15.2711 3.73197 15.2243 3.22316C15.1573 3.37457 15.1201 3.54171 15.1201 3.71739C15.1201 4.40175 15.6842 4.95652 16.3801 4.95652C17.076 4.95652 17.6401 4.40175 17.6401 3.71739C17.6401 3.35039 17.4779 3.02065 17.2201 2.79376V3.13043C17.2201 3.68272 16.7724 4.13043 16.2201 4.13043ZM2 6.19565V16C2 16.5523 2.44772 17 3 17H18C18.5523 17 19 16.5523 19 16V6.19565H2ZM10.0801 13.6304H7.56012V16.1087H10.0801V13.6304ZM3.78012 13.6304H6.30013V16.1087H3.78012V13.6304ZM13.8602 13.6304H11.3402V16.1087H13.8602V13.6304ZM7.56012 10.3261H10.0801V12.8043H7.56012V10.3261ZM6.30013 10.3261H3.78012V12.8043H6.30013V10.3261ZM11.3402 10.3261H13.8602V12.8043H11.3402V10.3261ZM17.6401 10.3261H15.1201V12.8043H17.6401V10.3261ZM11.3399 7.02173H13.8599V9.5H11.3399V7.02173ZM17.6401 7.02174H15.1201V9.5H17.6401V7.02174Z" fill="#33B1CA"/>
</svg>
