<svg width="22" height="12" viewBox="0 0 22 12" fill="none" xmlns="http://www.w3.org/2000/svg">
<path fill-rule="evenodd" clip-rule="evenodd" d="M19.6376 6C17.9505 3.65998 14.9081 2 11.2 2C7.4918 2 4.44943 3.65998 2.7623 6H0.399972C2.27654 2.45909 6.40665 0 11.2 0C15.9933 0 20.1234 2.45909 22 6H19.6376Z" fill="#B7C6CB"/>
<path fill-rule="evenodd" clip-rule="evenodd" d="M2.76236 6C4.44949 8.34002 7.49186 10 11.2 10C14.9082 10 17.9506 8.34002 19.6377 6H22C20.1235 9.54091 15.9933 12 11.2 12C6.40671 12 2.2766 9.54091 0.400034 6H2.76236Z" fill="#B7C6CB"/>
<ellipse cx="11.1999" cy="5.99996" rx="3.13548" ry="3.17647" fill="#B7C6CB"/>
<circle cx="12.3999" cy="4.8" r="0.8" fill="white"/>
</svg>
