<svg width="176" height="63" viewBox="0 0 176 63" fill="none" xmlns="http://www.w3.org/2000/svg">
<path d="M32.5671 0.134079C27.6016 0.451611 22.8011 1.22474 13.7915 3.17135C8.56464 4.30342 2.85631 5.49072 1.12318 5.78064L0.132816 5.96011L0.0365306 9.20448C-0.114775 13.926 0.187836 16.0107 1.24697 17.5846C1.50832 17.9573 2.4299 19.0894 3.29647 20.0972C6.24004 23.4796 6.43261 23.8386 7.60179 28.4083C9.62378 36.2638 12.7599 45.1133 15.3459 50.3043C17.2165 54.0594 20.8616 57.1243 26.0473 59.2918C33.585 62.4395 42.6358 63.3783 52.168 61.9701C55.4005 61.5007 58.0552 60.7 60.7374 59.3885C67.5737 56.0613 73.1857 49.7244 78.165 39.7428C79.458 37.1336 80.1045 35.3388 81.1911 31.2523C82.3465 26.9449 83.3507 24.446 84.3685 23.3692L84.7949 22.8998L87.3259 22.9964C89.0452 23.0517 90.1594 23.0241 90.7921 22.9136C91.7 22.7617 91.755 22.7617 92.3327 23.1069C93.6394 23.8662 95.1662 26.4893 96.1153 29.5542C98.096 35.9601 99.0039 38.3623 100.792 42.0208C104.066 48.689 108.192 53.6176 113.117 56.6963C119.004 60.3687 126.473 62.3843 134.285 62.3843C140.723 62.3843 146.184 61.1556 151.342 58.5601C156.472 55.9784 160.585 52.0438 163.212 47.198C164.767 44.3264 165.826 41.2063 167.586 34.2896C169.003 28.7673 169.787 25.9509 170.351 24.377C171.19 22.03 172.359 20.2629 173.735 19.2551C175.248 18.1506 175.385 18.0264 175.633 17.4603C175.977 16.6458 176.059 15.5965 175.908 13.719C175.826 12.6007 175.826 11.5653 175.922 10.516C176.114 8.63844 175.963 7.74107 175.33 6.98175C174.739 6.25004 174.01 5.9325 172.332 5.62878C169.98 5.2146 169.003 4.9799 165.372 3.98589C159.815 2.45345 158.687 2.20494 155.138 1.63891C145.757 0.147884 143.281 -0.0868149 138.219 0.023632C131.548 0.175495 127.009 0.810558 113.515 3.50269C104.685 5.26982 99.8017 6.09818 96.1841 6.45713C95.3588 6.53996 94.4372 6.65041 94.1621 6.67802C93.6669 6.74705 93.6532 6.74705 93.6119 6.23623L93.5706 5.71161L91.7137 5.33886C88.0961 4.62096 85.8678 4.35864 83.3919 4.34484C81.5 4.5 81 4.5 80.5 5C80 5.5 79.7677 5.75716 79.6093 5.9325C79.2817 6.29516 79 6.29848 77.546 6.05676C75.304 5.684 73.4195 5.29744 67.5049 3.98589C62.1129 2.78479 59.3069 2.27398 54.7815 1.65271C44.0526 0.175495 38.2342 -0.224873 32.5671 0.134079ZM50.4487 5.71161C57.1749 6.01534 65.8268 8.27949 70.531 10.9578C73.337 12.5455 75.359 14.6578 76.3218 16.9633C77.3947 19.5312 77.4085 23.0793 76.3769 27.1796C75.3177 31.3904 71.8102 39.6738 69.6369 43.1253C64.5338 51.2569 56.9823 55.8956 47.1612 56.931C41.5354 57.5385 33.8188 56.6549 29.4172 54.9016C24.3829 52.9136 20.3664 48.7028 18.2482 43.2081C16.9277 39.7981 15.2496 33.5164 14.5481 29.3885C13.8328 25.1639 13.6127 19.2827 14.0804 17.0185C14.7682 13.6499 16.6801 11.3582 20.2564 9.63245C23.8465 7.89293 27.6291 7.07838 36.0196 6.20862C41.893 5.58736 45.2355 5.47691 50.4487 5.71161ZM135.042 5.71161C138.825 5.87728 145.95 6.65041 149.21 7.24405C156.541 8.59702 160.516 10.8059 162.359 14.5473C163.295 16.4525 163.432 17.3085 163.432 21.036C163.446 24.9292 163.088 28.0908 162.194 32.2877C161.452 35.7254 159.966 40.8335 158.962 43.3738C156.706 49.117 152.662 53.1897 147.284 55.1363C145.441 55.799 142.387 56.4478 139.031 56.8896C137.27 57.1243 131.081 57.1243 129.471 56.8896C125.455 56.3098 122.429 55.4124 119.375 53.8938C113.323 50.8703 109.183 46.5491 105.881 39.8119C100.077 27.9527 98.7425 20.5528 101.576 15.7346C103.405 12.6283 107.573 9.96379 113.392 8.19665C118.619 6.60899 122.855 5.86348 127.958 5.64258C130.365 5.54594 131.163 5.54594 135.042 5.71161Z" fill="#0076A3"/>
<path d="M27.6704 14.0503C26.8588 14.423 26.2536 15.0995 25.6621 16.3421C23.2825 21.2983 24.3279 30.2721 27.4778 31.8874C28.5507 32.4258 29.8712 32.1221 30.7377 31.1142C32.7185 28.8639 33.5025 22.9826 32.4159 18.551C32.072 17.1704 31.2192 15.3895 30.614 14.7682C30.0637 14.216 29.2109 13.788 28.6332 13.788C28.4131 13.788 27.973 13.9122 27.6704 14.0503Z" fill="#0076A3"/>
<path d="M121.617 13.4981C120.984 13.6499 120.682 13.857 120.063 14.5197C117.174 17.6812 117.147 26.5998 120.022 29.9684C120.902 31.0038 122.167 31.3075 123.282 30.7553C126.363 29.2643 127.477 20.9532 125.262 16.0521C124.451 14.2298 122.938 13.1805 121.617 13.4981Z" fill="#0076A3"/>
</svg>
