<svg width="21" height="21" viewBox="0 0 21 21" fill="none" xmlns="http://www.w3.org/2000/svg">
<path fill-rule="evenodd" clip-rule="evenodd" d="M10.5 19C15.1944 19 19 15.1944 19 10.5C19 5.80558 15.1944 2 10.5 2C5.80558 2 2 5.80558 2 10.5C2 15.1944 5.80558 19 10.5 19ZM10.5 21C16.299 21 21 16.299 21 10.5C21 4.70101 16.299 0 10.5 0C4.70101 0 0 4.70101 0 10.5C0 16.299 4.70101 21 10.5 21ZM10.7759 9.33333C11.3281 9.33333 11.7759 9.78105 11.7759 10.3333V15.5747C11.7759 16.127 11.3281 16.5747 10.7759 16.5747C10.2236 16.5747 9.77586 16.127 9.77586 15.5747V10.3333C9.77586 9.78105 10.2236 9.33333 10.7759 9.33333ZM11.811 6.55777C11.787 6.00601 11.3203 5.57816 10.7685 5.60214C10.2167 5.62612 9.78889 6.09286 9.81287 6.64462L9.81929 6.79216C9.84327 7.34392 10.31 7.77177 10.8618 7.74779C11.4135 7.72381 11.8414 7.25707 11.8174 6.70531L11.811 6.55777Z" fill="#90C4B1"/>
</svg>
