<svg width="18" height="20" viewBox="0 0 18 20" fill="none" xmlns="http://www.w3.org/2000/svg">
<path fill-rule="evenodd" clip-rule="evenodd" d="M0 3C0 1.34315 1.34314 0 3 0H10.349C10.9013 0 11.349 0.447715 11.349 1C11.349 1.55228 10.9013 2 10.349 2H3C2.44772 2 2 2.44771 2 3V16.3642C2 16.9165 2.44771 17.3642 3 17.3642H10.349C10.9013 17.3642 11.349 17.812 11.349 18.3642C11.349 18.9165 10.9013 19.3642 10.349 19.3642H3C1.34315 19.3642 0 18.0211 0 16.3642V3ZM6.01011 10.0439C6.01011 9.49159 6.45782 9.04387 7.01011 9.04387H13.3048L11.6703 7.51937C11.2664 7.14267 11.2444 6.50989 11.6211 6.10601C11.9978 5.70213 12.6306 5.6801 13.0344 6.0568L16.3734 9.17104L17.124 9.87117L16.4045 10.6033L13.0656 14.0006C12.6785 14.3945 12.0453 14.4 11.6514 14.0129C11.2575 13.6258 11.252 12.9926 11.6392 12.5987L13.1673 11.0439H7.01011C6.45782 11.0439 6.01011 10.5962 6.01011 10.0439Z" fill="#012B39"/>
</svg>
