<svg width="54" height="37" viewBox="0 0 54 37" fill="none" xmlns="http://www.w3.org/2000/svg">
<path fill-rule="evenodd" clip-rule="evenodd" d="M53.9869 19.7689C53.5416 30.6458 40.2848 35.7503 33.712 36.943L33.7786 36.8938C36.0139 35.2441 39.7899 32.4574 41.9941 29.151C46.787 21.9616 41.9146 16.4295 41.9146 16.4295C39.1106 13.8474 35.3108 12.5507 31.2517 12.1167C33.5034 13.4102 35 15.7005 35 18.3103C35 21.0404 33.3623 23.4209 30.9357 24.6763C36.0903 24.0152 40.881 22.4231 43.8228 20.752L31.6579 36.5743C16.7101 38.8006 -0.543443 30.7701 0.0131223 17.174C0.458375 6.29715 13.7152 1.19264 20.288 3.05616e-06L20.2214 0.0491579C17.9861 1.69888 14.2101 4.4856 12.0059 7.79192C7.21298 14.9813 12.0854 20.5134 12.0854 20.5134C15.0687 23.2606 19.1791 24.5529 23.5298 24.899C20.8495 23.718 19 21.2115 19 18.3103C19 15.8604 20.3189 13.692 22.3432 12.3655C17.4654 13.0769 12.9813 14.598 10.1772 16.191L22.3422 0.368645C37.2899 -1.85762 54.5435 6.17283 53.9869 19.7689ZM29.1798 18.3263C29.1798 19.4689 28.1609 20.3952 26.904 20.3952C25.647 20.3952 24.6281 19.4689 24.6281 18.3263C24.6281 17.1836 25.647 16.2573 26.904 16.2573C28.1609 16.2573 29.1798 17.1836 29.1798 18.3263Z" fill="#33B1CA"/>
</svg>
