<svg width="101" height="22" viewBox="0 0 101 22" fill="none" xmlns="http://www.w3.org/2000/svg">
<path d="M0.212 21V1.26H3.208L10.208 14.168L17.18 1.26H20.12V21H16.872V7.7L11.216 18.004H9.116L3.46 7.756V21H0.212ZM24.4646 21V1.26H37.5966V4.116H27.9086V9.548H36.9806V12.404H27.9086V18.144H37.5966V21H24.4646ZM41.1716 21V1.26H48.5076C51.8116 1.26 54.3596 2.10933 56.1516 3.808C57.9623 5.50667 58.8676 7.94267 58.8676 11.116C58.8676 14.2707 57.9623 16.7067 56.1516 18.424C54.3596 20.1413 51.8116 21 48.5076 21H41.1716ZM44.7556 18.032H48.2836C52.8383 18.032 55.1156 15.7267 55.1156 11.116C55.1156 6.524 52.8383 4.228 48.2836 4.228H44.7556V18.032ZM71.3478 21.28C69.4438 21.28 67.7731 20.86 66.3358 20.02C64.9171 19.18 63.8158 18.004 63.0318 16.492C62.2478 14.9613 61.8558 13.1693 61.8558 11.116C61.8558 9.044 62.2478 7.252 63.0318 5.74C63.8158 4.228 64.9171 3.06133 66.3358 2.24C67.7544 1.4 69.4251 0.979999 71.3478 0.979999C73.2704 0.979999 74.9411 1.4 76.3598 2.24C77.7784 3.06133 78.8798 4.228 79.6638 5.74C80.4478 7.252 80.8398 9.03467 80.8398 11.088C80.8398 13.16 80.4478 14.9613 79.6638 16.492C78.8798 18.004 77.7784 19.18 76.3598 20.02C74.9411 20.86 73.2704 21.28 71.3478 21.28ZM71.3478 18.2C73.1584 18.2 74.5678 17.5747 75.5758 16.324C76.5838 15.0733 77.0878 13.3373 77.0878 11.116C77.0878 8.876 76.5838 7.14 75.5758 5.908C74.5864 4.676 73.1771 4.06 71.3478 4.06C69.5371 4.06 68.1278 4.676 67.1198 5.908C66.1118 7.14 65.6078 8.876 65.6078 11.116C65.6078 13.3373 66.1118 15.0733 67.1198 16.324C68.1278 17.5747 69.5371 18.2 71.3478 18.2ZM93.6681 21.28C91.6148 21.28 89.8508 20.8693 88.3761 20.048C86.9201 19.208 85.8001 18.032 85.0161 16.52C84.2321 14.9893 83.8401 13.188 83.8401 11.116C83.8401 9.044 84.2321 7.252 85.0161 5.74C85.8001 4.228 86.9201 3.06133 88.3761 2.24C89.8508 1.4 91.6148 0.979999 93.6681 0.979999C94.9935 0.979999 96.2441 1.18533 97.4201 1.596C98.6148 2.00667 99.5948 2.59467 100.36 3.36L99.1841 6.216C98.3441 5.50667 97.4855 4.99333 96.6081 4.676C95.7308 4.34 94.7881 4.172 93.7801 4.172C91.7828 4.172 90.2615 4.77867 89.2161 5.992C88.1708 7.18667 87.6481 8.89467 87.6481 11.116C87.6481 13.3373 88.1708 15.0547 89.2161 16.268C90.2615 17.4813 91.7828 18.088 93.7801 18.088C94.7881 18.088 95.7308 17.9293 96.6081 17.612C97.4855 17.276 98.3441 16.7533 99.1841 16.044L100.36 18.9C99.5948 19.6467 98.6148 20.2347 97.4201 20.664C96.2441 21.0747 94.9935 21.28 93.6681 21.28Z" fill="url(#paint0_linear_610_892)"/>
<defs>
<linearGradient id="paint0_linear_610_892" x1="93.913" y1="-11.5503" x2="38.8034" y2="21.8102" gradientUnits="userSpaceOnUse">
<stop stop-color="#20D9E3"/>
<stop offset="1" stop-color="#13F0A1"/>
</linearGradient>
</defs>
</svg>
