<svg width="28" height="28" viewBox="0 0 28 28" fill="none" xmlns="http://www.w3.org/2000/svg">
<path fill-rule="evenodd" clip-rule="evenodd" d="M7.99999 2V7H20V6H18C16.8954 6 16 5.10457 16 4V2H7.99999ZM17 0H16.5H6.99999C6.4477 0 5.99999 0.447715 5.99999 1V7V7.55618H2C0.895431 7.55618 0 8.45161 0 9.55618V21.4569C0 22.5615 0.89543 23.4569 2 23.4569H3V25C3 26.6569 4.34315 28 6 28H21C22.6569 28 24 26.6569 24 25V23.4569H25.1119C26.2164 23.4569 27.1119 22.5615 27.1119 21.4569V9.55618C27.1119 8.45161 26.2164 7.55618 25.1119 7.55618H22V7V5.50484L22 5.5V5V4.36205C22 3.89418 21.836 3.44111 21.5364 3.08168L19.5681 0.719631C19.1881 0.263646 18.6252 0 18.0316 0H18H17ZM18 2L18 4H19.6983L18.0316 2H18ZM25.1119 9.55618H2L2 21.4569H3V18V16H5H22H24V18V21.4569H25.1119V9.55618ZM5 18H22V25C22 25.5523 21.5523 26 21 26H6C5.44772 26 5 25.5523 5 25V18ZM6.59478 20.1854C6.59478 19.6331 7.0425 19.1854 7.59478 19.1854H19.5171C20.0694 19.1854 20.5171 19.6331 20.5171 20.1854C20.5171 20.7377 20.0694 21.1854 19.5171 21.1854H7.59478C7.0425 21.1854 6.59478 20.7377 6.59478 20.1854ZM7.59478 22.2141C7.0425 22.2141 6.59478 22.6618 6.59478 23.2141C6.59478 23.7664 7.0425 24.2141 7.59478 24.2141H19.5171C20.0694 24.2141 20.5171 23.7664 20.5171 23.2141C20.5171 22.6618 20.0694 22.2141 19.5171 22.2141H7.59478ZM20.5171 12.6136C20.5171 12.0613 20.9648 11.6136 21.5171 11.6136H22.4481C23.0004 11.6136 23.4481 12.0613 23.4481 12.6136C23.4481 13.1659 23.0004 13.6136 22.4481 13.6136H21.5171C20.9648 13.6136 20.5171 13.1659 20.5171 12.6136Z" fill="white"/>
</svg>
